<svg xmlns="http://www.w3.org/2000/svg" viewBox="0 0 486.3 367.7"><title>wizarding-world-log</title><g id="Layer_2" data-name="Layer 2"><g id="Layer_1-2" data-name="Layer 1"><path d="M232.3,157.4c-.3-.4-23.7-33.3-38.6-54.5a12.81,12.81,0,0,0-1.1-2,35.73,35.73,0,0,0-4.3-5.5c-1.2-1.7-2.5-3.4-2.9-4v-.2a13.36,13.36,0,0,0-1.6-2.3l-.2-.2a6.59,6.59,0,0,0-1.4-2.6,12.73,12.73,0,0,0-1.3-1.9h0l-4.5-6.4.3-1.1h0a4.76,4.76,0,0,0-1.8-2.6h0l-1,.1-1.2-1.6.2-.8h0a1.42,1.42,0,0,0-.2-.6,8.34,8.34,0,0,0-.8-1.2,1.8,1.8,0,0,0-.9-.6l-.7-.1-2.4-3.5V64.5h0a16.44,16.44,0,0,0-1.4-2.2l-1.4-.5-1.9-2.6h0c.2-.5.5-1.2.3-1.6-.4-.7-.9-1.6-1.3-2.4a2.44,2.44,0,0,0-2-1h-.5l-7.3-10.4-.2-1a2.59,2.59,0,0,0-.7-1.1l-1.6-1.2L146.2,35a1.46,1.46,0,0,0-.9-.6,1.16,1.16,0,0,0-1,.2l-3.4,2.6a1.42,1.42,0,0,0-.3,1.9l2.2,3.1.3,1.6a1.44,1.44,0,0,0,.9,1.1l1.5.7,6.5,8.9v1a1.7,1.7,0,0,0,.1.7,6.24,6.24,0,0,0,1,1.6,1.38,1.38,0,0,0,.4.3l1.6.8,3.1,4.2.7,1.3.1.2,1.1,1.2,2.1,2.8v.7a2,2,0,0,0,.3,1.1,13.44,13.44,0,0,0,1.1,1.4,2.07,2.07,0,0,0,1,.6l.5.1,1.4,1.8-.2.7h0a9.91,9.91,0,0,0,1.1,1.7h.8l2.1,2.8-.1,1.5h0a6.48,6.48,0,0,0,1.7,2l1.1.1,2.1,2.8a.75.75,0,0,0,.1.5,3.68,3.68,0,0,0,.8,1.5,5,5,0,0,0,1.7,1.5l1.7,2.3a3,3,0,0,0,1.3,2,.37.37,0,0,0,.3.1c2.9,3.9,7.5,10.1,7.6,10.2l5.9,8a11,11,0,0,0,3.1,4.2c5.3,7.1,31.3,41.9,32.1,42.9a2.2,2.2,0,0,0,1.6,1,1.53,1.53,0,0,0,1-.4c0,.5,1.2-.7,0-2.3Zm254,78.5H465.4c-5.7,0-11.5.4-13.5,5.3-.2.5-.5,1.7-.5,1.7l6.1,6,2.8-6.8h12l-2.9,3.1v18.6a30.41,30.41,0,0,1-11,2c-11,0-22.9-9.6-22.9-25.2,0-12.4,8-25.6,22.9-25.6,7,0,13,2.9,15.5,5.3a47,47,0,0,1,5.4,6.6l4.7-15.8-6.9,2.5s-9.5-4.8-18.6-4.8c-20.5,0-34.8,13-34.8,31.7a32.85,32.85,0,0,0,8.7,22.7c7,7.6,17,8.6,25.8,8.6a53,53,0,0,0,22.4-5.3V248.8l5.3-6.2-4.8-.8,5.2-5.9ZM74.5,210.3l3.6,3.9L66.6,248.7,53.4,214.1l3.7-3.9H37.4l3.6,3.9L30,251.3l-6.4-15.1,4.7,2-8.7-16.9,5.4,2.3-6.3-13.5H0l11,19.2-5.9-2.5,13.8,21.6L13.1,246l15.4,29.1,3-4.2,14.2-46.4,18.8,49.7,3-4.2,18.4-55.9,3.7-3.9-15.1.1Zm246.3,25.3c0-7.1-2.3-19.3-14.5-19.3h-9.1v37.2l-2.8,3h11c11.2,0,15.4-11.4,15.4-20.9Zm12,.1c0,14.5-8.7,26.9-22.2,26.9H283.1l3.1-3.9V214.2l-3.6-3.8h26.8C327.4,210.3,332.8,223.4,332.8,235.7ZM204.9,248l-9.1-25.3-11,25.3Zm22,22.4H208l3.6-3.9-3.6-9.9,2.7-2.6H182.1l-5.4,12.5,3.6,3.9H165.1l3.6-3.9,6.1-13.9L170,248h6.8l14.8-33.9-3.5-3.9H208l-3.6,3.9,18.8,52.4Zm189-56.3,3.6-3.9H405.1l3.6,3.9v40.5l-31.2-44.3H363.2l3.6,3.9v52.4l-3.6,3.9h14.2l-3.6-3.9V224.8l32.1,45.6h13.7l-3.6-3.9-.1-52.4ZM253,238.3c5.4,0,9.8-6,9.8-11.7,0-3.5-2.1-10.3-9.8-10.3h-8.3v22Zm67.8,29.9s-2.2,17.2-23.3,17.2c-14,0-24.4-5.9-31.2-14.2-9.8-11.9-13.7-26.9-13.7-26.9h-7.8v22.2l3.6,3.9H230.1l3.6-3.9V214.1l-3.6-3.9h26.7a17,17,0,0,1,7.6,1.8c5.9,2.8,9.5,8.2,9.5,14.2,0,12.2-11.9,16.7-11.9,16.7h0l4.4,1.5s3.4,12.2,10.3,22.3c4.4,6.5,11.3,12.9,23.4,12.9,8.9,0,13.4-4.2,14.4-6.4l-2.5-2.5-7.1,4.1,3.3-6.6ZM161.6,218.3v-8H120.2l-2.1,14.3,7.8-8.3H150l-31.5,45.8v8.4h43.1l1.5-13.2s-6.7,7.2-6.8,7.2H130.5L150,235.7l8.4-5.7-3-1.7,10.9-7.1-4.7-2.9Zm195.4-8H338.7l3.6,3.8v52.4l-3.6,3.9H357l-3.6-3.9V214.1l3.6-3.8Zm-245.8,0H92.9l3.6,3.8v52.4l-3.6,3.9h18.3l-3.6-3.9V214.1l3.6-3.8Zm38.3,80.3,3.5,4-15,43.9-14.8-44,4-3.9h-22l3.5,4L96.8,337.1,81,294.6l3.2-4H62.5l3.9,4,27.3,73,3.9-4.2L113,306.7l20.6,60.9,3.7-4c5-14.8,23.4-69,23.5-69l4.4-4ZM357.9,40.4l-8.5-6.1a1.36,1.36,0,0,0-1.6.1,1.93,1.93,0,0,0-.6,1.8l.2,1.1a3,3,0,0,1-.6,2.6L326.8,70c0,.1-.1.1-.1.2l-.5,1.8a1,1,0,0,1-.4.5l-2.1,1a2.09,2.09,0,0,0-1.1,1.6,3,3,0,0,0,.2,1h0c.1.1.2.3.3.4-17.6,24.3-58,81.4-58.6,82.2s-1.6,2.4-.4,3.1,2.6-1.3,2.6-1.3c14.4-18.4,51.8-69.4,60.5-81.2a.75.75,0,0,0,.5.1h0a1.78,1.78,0,0,0,2.1-1.6l.2-2.3a.55.55,0,0,1,.3-.5l1.5-1.1c.1,0,.1-.1.2-.2l21.5-29a3.92,3.92,0,0,1,2.3-1.4l1.1-.2a1.85,1.85,0,0,0,1.5-1.2,1.65,1.65,0,0,0-.5-1.5ZM257.1,157.6c.1.1.2.1.3.2a1.08,1.08,0,0,0,1.1,0,3.54,3.54,0,0,0,1.5-2.2c.5-1.7,1.2-4,1.9-6.6.6-2,1.2-4.1,1.8-6.1,1.6-5.4,6.3-18.2,8.8-25.1.9-2.5,1.5-4.1,1.6-4.4s.2-.7.3-1a24.32,24.32,0,0,1,1-3.4l.7-1.9c1.5-4.4,4.7-13.7,6.3-19.4A17.72,17.72,0,0,1,283,86a7,7,0,0,0,.6-1.9,14.23,14.23,0,0,1,.5-1.6,24.63,24.63,0,0,0,.7-2.4,5.09,5.09,0,0,1,.4-1.1,30.64,30.64,0,0,0,1.4-3.8c.8-2.2,2.7-8.1,4-11.9.7-2,1.2-3.6,1.2-3.7s.3-.7.6-1.5c.5-1.2,1.3-3,2.3-5.5,1.7-4.2,5-12.7,7.3-18.8.8-2.2,1.6-4.2,2.3-6a82.67,82.67,0,0,0,3.3-9.2,6.7,6.7,0,0,0-3.7-7.5,1.5,1.5,0,0,0-2.1,1l-.1.1a62.31,62.31,0,0,0-3.1,10.9,49.5,49.5,0,0,1-1.4,5.4c-2.1,5.9-4.1,11.8-5.9,17.8-.6,1.8-1.1,3.7-1.9,6-1.1,3.6-3.4,10.3-5.7,17.4-3,9.1-6.1,18.6-7.3,22.2-1.2,4-6.6,20.6-10.6,32.8-2.4,7.5-4.4,13.4-4.6,14.2-.7,2.3-3.7,12.4-4.3,14.9-.5,2-.7,3.1.2,3.8Zm-152-70.5a8.28,8.28,0,0,1,4,1.9c1.1,1,3.8,2,4.8,2.8a23,23,0,0,0,4.4,2.6,4.82,4.82,0,0,1,2.7,1.8c.5.8,2.3.9,2.3.9s1,1,1.5,1.4,4,2.1,5.2,3.3,4.9,3,7.5,5.2a54.76,54.76,0,0,0,5.6,4,33.91,33.91,0,0,1,5,3.7c1.3,1.1,3.4,2.3,4.8,3.5a57.07,57.07,0,0,0,6.3,4.2c2.2,1.4,4.9,3.7,6.6,4.8s5.5,3.5,6.9,4.6,6.2,4.7,8.5,6.2a61.65,61.65,0,0,1,7.1,5.2c2.1,1.8,8.4,5.8,14.1,9.6s17.9,12.5,19.5,13.6,2.5.3,2.6,0,.4-1-.9-2.2-7.7-5.8-10.5-7.8-10.6-8.2-12.7-9.7-15.8-11.5-18.9-13.8-7.4-5.3-9.7-7c-2.6-1.9-5.3-3.7-8-5.5s-4.3-3.7-8.1-6.2-5.3-4.4-8.5-6.2a25.12,25.12,0,0,1-6.2-4.8c-1.7-1.5-4.5-2.4-5.9-4.1a11.94,11.94,0,0,0-4.2-2.6c-.3-.8-3-2.4-3.8-2.9S120.6,87,118,85a56.62,56.62,0,0,0-5.8-3.6c-1-.7-1.6-2.2-4.4-5-2.4-2.5-6.3-1-7.8,1s-1.5,3.7-.6,6.1c1.2,2.5,4.2,3.2,5.7,3.6Zm276.3-4.2-11.8,9.9a2.11,2.11,0,0,0-1.3.5,2.52,2.52,0,0,0-.7,1.2c-3.7,2.7-85.4,63.8-95.4,71.4a1.28,1.28,0,0,0-.3,1.8h0a1.35,1.35,0,0,0,2,.4c10.9-7.9,92-66.2,96.8-69.7a2,2,0,0,0,1.6-.3,1.85,1.85,0,0,0,.7-.9c.7-.4,2.6-1.4,3.8-2.1s10.7-6.6,12.5-7.5c4.5-1.6,8.7-4.6,6.2-9.8a5.57,5.57,0,0,0-6.7-2.7c-3.9,1.2-3.6,5.3-3.6,5.8a8.37,8.37,0,0,1-2.6.2c-.2,0-.3.1-.3.2a.75.75,0,0,0-.1.5A2.84,2.84,0,0,1,381.4,82.9Zm8.1,54.7c-3.5,1.1-7.1,2.3-10.7,3.4a11.22,11.22,0,0,1-3.7.2h-.3a2.11,2.11,0,0,1-1-.4l-.6-.3-.5-.2-.7,1.2.4.4c0,.1.1.1.2.2l.2.2.3.4c-.1.1-.3.1-.4.2-.4.1-.8.2-1.1.3a7.49,7.49,0,0,0-1.6.5l-3,1.2a23.29,23.29,0,0,1-2.8,1.1c-1,.4-2.2.8-3.5,1.2l-10.5,3a5.73,5.73,0,0,0-1.4.4c-.8.2-1.6.4-2.5.6s-1.8.5-2.7.7a52.12,52.12,0,0,0-5.1,1.5c-1,.3-2,.7-3.1,1a64.42,64.42,0,0,0-6.6,2.5l-1.2.5c-2,.9-4,1.8-6,2.6-1.3.6-2.5,1.1-3.8,1.7a41.2,41.2,0,0,1-5.3,1.8c-1.4.4-2.9.9-4.2,1.4-2.6,1-5.4,1.9-8.2,2.7-1.5.4-2.9,1.1-4.3,1.5l-3,.9c-1.9.5-3.8,1.1-5.6,1.7-.6.2-1.2.4-1.7.6l-2.7.8c-.9.2-1.9.6-2.9.8a15.47,15.47,0,0,0-1.5.4c-.9.2-1.6.5-1.5,1.3.1.4.4.7,1.6.7a22.2,22.2,0,0,0,3.3-.4c3.1-.6,5.9-1.4,9.1-2.1,1.3-.3,3.2-1.4,4.4-1.6s2.4-.5,3.7-.8c1-.2,2.4-.6,3.5-.8,1.7-.4,3.1-1.2,4.6-1.6,2.4-.6,4.7-.8,6.7-2s3.9-1.3,6-2c.5-.2,1.1-.4,1.6-.6l.8-.3a25.58,25.58,0,0,0,2.4-1.1,32.81,32.81,0,0,1,5.2-2c.8-.2,1.6-.5,2.4-.7a15.35,15.35,0,0,1,4.1-1,5.9,5.9,0,0,0,1.4-.2l.3-.1c1.9-.4,3.6-.9,5.2-1.4s3.2-1,5-1.4l2.1-.4c2.2-.4,4.4-.9,6.6-1.4,1.3-.3,2.5-.7,3.7-1.1.7-.2,1.3-.4,2-.6l1.2-.3a15.19,15.19,0,0,0,2-.6c2.1-.8,4.1-1.6,6.2-2.5l.2-.1a3.63,3.63,0,0,0,1.9-1.3c.4-.8,1-.8,2-.9l3-.3c2.9-.2,5.7-.5,8.6-.8a51.76,51.76,0,0,0,6.6-1.4c1.7-.5,3.3-1.1,5-1.6,2-.7,4.1-1.4,6.2-2,2.7-.7,8.5-2,11.2-2.7,1.6-.4,3.3-.7,4.9-1.1,1-.2,2.4-1,2.3-2a1.9,1.9,0,0,0-.8-1.5,2.58,2.58,0,0,1-1-2.5c0-.6-.7-1.6-1.4-1.6h-.4a9.15,9.15,0,0,0-3.3,0c-1.3.4-5.8,1.3-7.1,1.6a35.35,35.35,0,0,0-6.2,1.6c-2.5,1-5.2,1.8-7.7,2.6-1,.3-2,.6-2.9.9l-3.6,1.4ZM74.9,141.5a9.68,9.68,0,0,0,.7.9,19,19,0,0,0,3.3,2.2,7.66,7.66,0,0,0,2.3,1c.4.1.9.3,1.5.5a17.66,17.66,0,0,0,2.5.8.6.6,0,0,1,.4.1,3.41,3.41,0,0,0,2.6-.3c.3-.2,1-1.2.9-1.5s-1.4.3-2.8-1.1a17.5,17.5,0,0,1-1.9-2c0-.3,1-2.4,1.3-2.4a10.2,10.2,0,0,1,1.5.4,10.34,10.34,0,0,1,3.9,2.3,9.8,9.8,0,0,0,6.4,2.6c10.4-.8,21.1,5,22,6a3.09,3.09,0,0,0,2.9,1.1h.1l.1-.1c2.1-2.1,5.8-1.4,5.9-1.4l25.3,7.3a43.93,43.93,0,0,0,6.4,1.9L217,176.6a1.51,1.51,0,0,0,1.8-2.1,2,2,0,0,0-.9-.9c-3.6-1.2-15.9-5.5-31.3-10.5a60.7,60.7,0,0,0-5.9-2.4,45.56,45.56,0,0,0-5.3-1.3c-29.9-9.8-46.7-15.3-48.5-16.1-1.5-.6-1.6-1.1-1.6-1.1,0-.3.7-.8.9-1,.4-.3.7-.5.7-1l-.1-.4-.3-.2c-.7-.4-3.8-.6-8-.5-5.6.2-24.6-2.4-28.1-7.4a14.23,14.23,0,0,0-2.6-2.9,13.36,13.36,0,0,1-2-2.1c-2.2-2.8-6.3-3.8-7.6.5-1,3.4-5.1,3.4-6,6.9-.4,1.5,1,2.4,1.7,3.7C74.3,139,74,140.4,74.9,141.5ZM189.4,18.6c.4.2,1.4.6,1.7.8l1.1.6.1.4a5.46,5.46,0,0,0,.6,1.8,22.36,22.36,0,0,1,.8,2.6c0,.1.1.2.1.3l1.6,2.8.3,1,.2.1c.1,0,.1.1.2.1a1.08,1.08,0,0,0-.3.7A4,4,0,0,0,197,32a21,21,0,0,1,1.5,4.7c-.1.3-.1.9.3,2.8a8.73,8.73,0,0,1,.5,2.2,23.65,23.65,0,0,0,.9,3.2l.6,2a8,8,0,0,1,.4,1.8c0,.2.1,1.2.3,4.4a1.49,1.49,0,0,0,.4.9l1.1,1.1a5,5,0,0,1,.7.8l.8.8,3.1,9.3c2,6.8,4.1,13.5,6.3,20.2.7,2.1,1.4,4.3,2,6.4,2.3,7.3,4.6,14.7,7.6,21.7L237.3,156a1.67,1.67,0,0,0,2,1.1.77.77,0,0,0,.3-.2,1.61,1.61,0,0,0,.6-1.8l-11.1-39.3a34.27,34.27,0,0,0-1.5-5.4l-.2-.6-.2-.7a15.81,15.81,0,0,0-.9-5.2c-.8-2-1.6-4-2.5-6l-.9-3c-1.3-5.4-2.9-10.8-4.6-16.1-.5-1.7-1-2.9-1.4-4l-6.3-20.9a1.39,1.39,0,0,0,.9-1.7l-1.6-5.3a2.09,2.09,0,0,0-.4-.6l-1-.9-.2-.6v-.7a.9.9,0,0,0-.1-.5l-2.4-6,.3-1.1a1.39,1.39,0,0,0,0-.9l-.3-1a1.79,1.79,0,0,0-.5-.7l-.9-.9h-.1l-.7-1.8-1-4.1L200,19.9c.7-2.6.6-3.1.5-3.3v-1a4.8,4.8,0,0,0,0-1.2,15.48,15.48,0,0,1-.1-2.2,1.38,1.38,0,0,0-1-1.3l-1.2-.4-1.3-.5-1-.3a.85.85,0,0,0-.7,0l-1.2.4c-1.2,0-1.8.4-1.9,1a6.07,6.07,0,0,1-.7,1l-1.4.4-.1.1c-.3.2-1.3.8-1.4,1.6a9.46,9.46,0,0,0,.1,2.4c-.1.9.1,1.7.8,2ZM243.2,31c.1,1.1,1.1,1.7,1.8,2.1l.3,13.1-1.4,1.3a2.13,2.13,0,0,0-.7,1.5v1.2a9.8,9.8,0,0,0,2.3,5.7l.2.2.1,2.3a64.79,64.79,0,0,0,.4,9.8l.3,6c-1.5,2.2-2.1,4.2-1.6,5.8a4.33,4.33,0,0,0,1.7,2.3v.4a41,41,0,0,0,0,9.9v8.8a6.68,6.68,0,0,0-1.5,5.1,5.38,5.38,0,0,0,1.2,3.5c.1,1.2.3,2.5.5,3.7l.1.8-.3,17.1c-1.8,4.6-.4,7.5.4,8.5.1,3.2.4,14.9.4,15,0,.3.2,1.4,1.2,1.4a1.58,1.58,0,0,0,1.6-1.6c.2-4.2.7-12.4.6-14.8.7-1,2.2-3.9.4-8.5v-2.3a25.42,25.42,0,0,0-.1-3.9l-.1-4.6v-3.5l-.1-3.7c.1-1,.2-2.1.2-3.2a4.57,4.57,0,0,0,1.4-3.2,6.8,6.8,0,0,0-1.3-5.6v-1.1a12.18,12.18,0,0,0,0-2.7l-.3-15.4a4.46,4.46,0,0,0,1.6-2.6,7.22,7.22,0,0,0-1.7-5.6l.1-17.9a11.81,11.81,0,0,0,2.5-7.1,2.13,2.13,0,0,0-.7-1.5l-1.4-1.3v-.1c.1-2,.2-4,.2-6.2l.2-6.7c.7-.3,1.8-1,1.8-2.1,0-.5.2-2,.5-4.1a3.43,3.43,0,0,0-2.2-3.7l-.4-8.3a5,5,0,0,0,1.9-4.4,4.7,4.7,0,0,0-2.5-3.5L253,3.6V3.4c0-.3.1-2.6-1.4-3a11.24,11.24,0,0,0-3.2-.4H248a6.28,6.28,0,0,0-1.9.3H246l-.5.1c-1.5.4-1.4,2.7-1.4,3v.2l2.2,3.7a4.47,4.47,0,0,0-2.5,3.5,4.84,4.84,0,0,0,1.9,4.4l-.5,8.3a3.32,3.32,0,0,0-2.2,3.7c0,1.8.2,3.3.2,3.8Zm4.6,140.8a14.69,14.69,0,0,1,14.5,13h0a51.92,51.92,0,0,1,.3,5.3H434.7v-1.8l-7-5H269a21.87,21.87,0,0,0-21.3-18.5h0c-10.7,0-19.6,8.2-21.3,18.5H67.7l-7,5v1.8H232.8a51.92,51.92,0,0,1,.3-5.3h0a15,15,0,0,1,14.7-13Zm171,155.3c0-15.2-7-30.4-21-30.4H379.3v58.5l-2.8,3.1h15.8C406.4,358.3,418.8,345.4,418.8,327.1Zm14.7-.3c0,27.1-22.2,37.6-34.5,37.6H361.6l3.7-4V317.9l-4.4-9.4,4.7,2L358.7,297l7.3.6-6-7h41.9C420.4,290.6,433.5,305.2,433.5,326.8Zm-82.2,31.5H324.9l2.9-3.1V294.6l3.7-4H310.1l3.6,4v65.9l-3.7,4h46.5l1.6-14.7-6.8,8.5Zm-72.2-48.5c0-5.6-4.2-12.9-11.9-12.9h-7.8v27.5h7.9C275,324.3,279.1,316.9,279.1,309.8Zm5,54.6,3.7-4-20.6-29.9h-7.8v29.9l3.6,4H241.8l3.7-4V294.5l-3.7-4h30.8c11.2,0,22.7,9.1,20.2,22.9l3.7-.1s-6.5,7.4-6.6,7.7l2.5,1.9h0l-14.1,6.4,4.4,1.6,20.4,29.5,3.7,4ZM232.4,350c-6.2,9.8-18.2,16.6-32.5,16.6-21.5,0-39.9-14.7-39.9-38.7,0-21,15.8-38.4,39.9-38.3a46.84,46.84,0,0,1,25.7,7.6c-7.2-2.7-31.9-7.6-44.2,8.9-4.9,6.5-6.7,14.9-6.7,21.8,0,19.4,12.5,32.3,25.1,32.3,10.7,0,20.5-7.9,23.4-22.9a30.2,30.2,0,0,0-5.8-23.8c-3.6-4.4-12.1-8.7-19.4-2.5-4.4,3.7-4,7.8-2.8,10.8,2.1,4.5,7.5,4.4,7.5,4.4-9.4,1.9-13.3-5.4-12.2-11.2,1.1-5.5,7.6-14.4,7.6-14.4l20.4.3,16.3,15.4a55.72,55.72,0,0,1,2.3,7.5C239.2,332.9,236.5,343.4,232.4,350Z"/><path d="M427.2,350.2h10.4v2.4h-4.2v14.9h-2V352.6h-4.2Zm10.4,0h2.8l5.9,14.7,5.8-14.7h2.8v17.4h-2.5v-12c-.2.5-.9,2.5-.9,2.5l-3.9,9.6H445l-3.9-9.6-.9-2.5v12h-2.6V350.2Z"/></g></g></svg>